Coordinates
version=1
nRows=29
nColumns=24
inDegrees=yes

Units are S.I. units (second, meters, Newtons, ...)
Angles are in degrees.

endheader
time	pelvis_tilt	pelvis_list	pelvis_rotation	pelvis_tx	pelvis_ty	pelvis_tz	hip_flexion_r	hip_adduction_r	hip_rotation_r	knee_angle_r	ankle_angle_r	subtalar_angle_r	mtp_angle_r	hip_flexion_l	hip_adduction_l	hip_rotation_l	knee_angle_l	ankle_angle_l	subtalar_angle_l	mtp_angle_l	lumbar_extension	lumbar_bending	lumbar_rotation
      0.82000000	      7.50487145	     -7.77075373	     -0.67536602	     -0.57810862	      0.89915321	      0.02118874	    -27.43222844	     10.35359863	     -1.55154911	    -10.38872395	     14.80187943	      2.99537254	     44.81936700	     14.03547832	     -5.72071828	     -4.78479273	     -3.73991887	     11.25356854	     -0.38750892	     29.61912718	    -19.28329406	      4.94096808	      3.16403361
      0.82500000	      7.37480026	     -7.69775277	     -0.87724575	     -0.56998242	      0.89838826	      0.02098428	    -27.16516996	     10.06073825	     -1.37192919	    -11.59950011	     14.62623943	      3.36053482	     45.02869423	     14.16730422	     -5.60159105	     -4.85364745	     -4.28054456	     10.89280870	     -0.70739440	     29.87707703	    -19.11124594	      4.80698377	      3.14343828
      0.83000000	      7.20805182	     -7.57926002	     -0.90065794	     -0.56189072	      0.89757206	      0.02048762	    -26.79256913	      9.79736113	     -1.45455912	    -12.85706595	     14.11556608	      3.49334735	     47.24182907	     14.40578176	     -5.38006474	     -4.58291999	     -4.95326323	     10.26105185	     -1.45714460	     31.57813823	    -18.88702668	      4.67897027	      2.96317534
      0.83500000	      6.98959285	     -7.43987425	     -0.87964637	     -0.55384606	      0.89675761	      0.01994591	    -26.29374842	      9.53075459	     -1.55822362	    -14.22753281	     13.71125170	      3.90627640	     48.18986307	     14.77787239	     -5.13121101	     -4.30231814	     -5.85910576	      9.78006243	     -2.00593009	     31.83101668	    -18.60497543	      4.53690061	      2.69331079
      0.84000000	      6.75087629	     -7.27252179	     -0.84055903	     -0.54587774	      0.89598215	      0.01936399	    -25.67426672	      9.24726796	     -1.67937499	    -15.74893811	     13.17493957	      4.06848231	     50.03041510	     15.18283190	     -4.84557807	     -3.93562790	     -6.83832051	      9.26885941	     -2.62422691	     32.27059169	    -18.30695895	      4.36896635	      2.39925645
      0.84500000	      6.49567040	     -7.08213037	     -0.78565632	     -0.53794145	      0.89527211	      0.01874796	    -24.97697194	      8.94249343	     -1.80366059	    -17.34702656	     12.51812388	      4.30374721	     51.74952996	     15.64288810	     -4.53183869	     -3.57368444	     -7.95076478	      8.79024160	     -3.20697212	     32.61025362	    -17.99354584	      4.17823715	      2.08889083
      0.85000000	      6.25437904	     -6.84071742	     -0.76013821	     -0.53003934	      0.89467266	      0.01818353	    -24.21493718	      8.57678165	     -1.89029696	    -19.05934144	     11.73281073	      4.39217429	     54.14059342	     16.10142835	     -4.17353606	     -3.28480782	     -9.15977721	      8.39560266	     -3.80787165	     33.03800197	    -17.69956673	      3.91562997	      1.78343709
      0.85500000	      5.96468989	     -6.59449547	     -0.63920914	     -0.52222204	      0.89403131	      0.01745543	    -23.31421020	      8.23762444	     -2.08785990	    -20.89103373	     10.88474360	      4.55044279	     55.91498526	     16.65062301	     -3.78093524	     -2.84660930	    -10.44494029	      8.00546653	     -4.34629684	     33.22808997	    -17.35629928	      3.67793568	      1.39823085
      0.86000000	      5.64143757	     -6.34096187	     -0.46746103	     -0.51448013	      0.89339407	      0.01663431	    -22.28851207	      7.90443034	     -2.34054656	    -22.84833266	      9.92772774	      4.66777541	     57.45316670	     17.24991692	     -3.36188221	     -2.31378575	    -11.77210879	      7.62985721	     -4.83560140	     33.28003101	    -16.97963779	      3.44508601	      0.98606661
      0.86500000	      5.36706317	     -6.03696369	     -0.38304637	     -0.50673439	      0.89291080	      0.01593556	    -21.24986442	      7.47634361	     -2.51817632	    -24.88981970	      8.81574257	      4.76432235	     59.83583820	     17.76533356	     -2.92168936	     -1.99075275	    -13.11443769	      7.39972212	     -5.23186340	     33.28741961	    -16.66276663	      3.12727866	      0.64331521
      0.87000000	      5.04607938	     -5.71872294	     -0.23006710	     -0.49905953	      0.89235304	      0.01510581	    -20.07453500	      7.04902150	     -2.77678992	    -27.07003173	      7.75483402	      4.94922942	     60.44060897	     18.33479655	     -2.43624158	     -1.54133599	    -14.46195958	      7.25054038	     -5.65259115	     33.21157582	    -16.29709092	      2.81499681	      0.23694340
      0.87500000	      4.71209066	     -5.38327278	     -0.09190373	     -0.49143161	      0.89181949	      0.01430560	    -18.81803751	      6.60023479	     -3.00285525	    -29.32962127	      6.55744240	      4.90861633	     61.37921654	     18.88944070	     -1.93820405	     -1.13578648	    -15.77687719	      7.15529456	     -6.04607413	     33.08113736	    -15.92270372	      2.47597979	     -0.14319896
      0.88000000	      4.52461563	     -5.00853623	      0.08691635	     -0.48376087	      0.89154930	      0.01355381	    -17.70888190	      6.12389788	     -3.27573074	    -31.53231968	      5.02920520	      4.45576229	     63.91855999	     19.23336685	     -1.41270236	     -0.83088566	    -17.01551937	      7.16520876	     -6.19617783	     32.64773142	    -15.70803362	      2.08326683	     -0.58841000
      0.88500000	      4.27779977	     -4.60920927	      0.12719497	     -0.47617493	      0.89125356	      0.01289809	    -16.43366589	      5.56046038	     -3.42083498	    -33.91261165	      3.67422636	      4.35832582	     64.28386438	     19.56537995	     -0.89672061	     -0.66471576	    -18.13477143	      7.18423677	     -6.49180917	     32.47601641	    -15.44121237	      1.64286684	     -0.84492670
      0.89000000	      4.05660986	     -4.19667636	      0.20606878	     -0.46861152	      0.89100562	      0.01224515	    -15.15337146	      5.00045007	     -3.59979700	    -36.29393587	      2.23195657	      3.96880469	     64.67925871	     19.83015096	     -0.36738536	     -0.50629735	    -19.18143878	      7.31914621	     -6.67826743	     32.24123581	    -15.20348406	      1.18911460	     -1.15419992
      0.89500000	      3.87400731	     -3.76430136	      0.26366497	     -0.46105740	      0.89086283	      0.01162887	    -13.88339233	      4.40890625	     -3.76383425	    -38.67186839	      0.75093606	      3.45923746	     64.97825243	     19.98471710	      0.16437941	     -0.42581614	    -20.11123996	      7.54173833	     -6.78217173	     31.93028984	    -15.00982815	      0.70754957	     -1.43172675
      0.90000000	      3.73148733	     -3.31441549	      0.30260979	     -0.45352189	      0.89082378	      0.01107537	    -12.63251730	      3.79569702	     -3.90611399	    -41.02969158	     -0.71685477	      2.83353991	     65.03408676	     20.02798864	      0.69474646	     -0.41981489	    -20.91901438	      7.84060310	     -6.81900748	     31.58716750	    -14.86503258	      0.19755201	     -1.68814093
      0.90500000	      3.60788496	     -2.86389520	      0.32928739	     -0.44601873	      0.89086788	      0.01056108	    -11.38282044	      3.18140443	     -4.02702407	    -43.34987446	     -2.13292560	      2.10121379	     64.81857060	     19.98920188	      1.21234319	     -0.45610513	    -21.61539270	      8.21180721	     -6.80114076	     31.19713469	    -14.74481501	     -0.31782236	     -1.93264509
      0.91000000	      3.49975832	     -2.40081998	      0.35688993	     -0.43853262	      0.89097680	      0.01006215	    -10.13527680	      2.55146880	     -4.14884054	    -45.63810605	     -3.33752041	      1.45320888	     63.46232996	     19.87588325	      1.73454018	     -0.52724483	    -22.22038810	      8.81540839	     -6.56276934	     29.54231883	    -14.64265858	     -0.84685858	     -2.20681325
      0.91500000	      3.45130947	     -1.95049611	      0.34951425	     -0.43104637	      0.89128069	      0.00964605	     -8.95793332	      1.94129411	     -4.22273617	    -47.80983496	     -4.52694240	      0.48654417	     63.03610824	     19.60760583	      2.22365669	     -0.64939113	    -22.64349430	      9.25913885	     -6.49229484	     29.45445060	    -14.60584137	     -1.37236610	     -2.39256812
      0.92000000	      3.34715401	     -1.53686111	      0.35635531	     -0.42362845	      0.89156959	      0.00922090	     -7.70112574	      1.37616704	     -4.27932379	    -49.95044819	     -5.38605855	     -0.14508916	     60.45220165	     19.37625926	      2.67421157	     -0.76264360	    -23.02764910	      9.84563938	     -6.24018845	     28.37966843	    -14.51141721	     -1.85211439	     -2.61181266
      0.92500000	      3.26121229	     -1.15314431	      0.36194640	     -0.41623223	      0.89196244	      0.00884218	     -6.46916032	      0.85328946	     -4.33390052	    -51.97591079	     -6.12528581	     -1.02768214	     58.96854584	     19.06257833	      3.08191413	     -0.88577526	    -23.28852752	     10.44337393	     -5.91505885	     27.89599686	    -14.43844341	     -2.30066663	     -2.80984146
      0.93000000	      3.23481408	     -0.78252041	      0.33147685	     -0.40884159	      0.89257762	      0.00854009	     -5.31118909	      0.35387719	     -4.33045515	    -53.88462837	     -6.59460584	     -1.82066878	     56.89798015	     18.60988793	      3.46284008	     -1.05402552	    -23.41213624	     11.02489729	     -5.65803067	     27.25079583	    -14.43238589	     -2.74289472	     -2.98817720
      0.93500000	      3.27059282	     -0.42262156	      0.24567960	     -0.40145326	      0.89340927	      0.00829453	     -4.22747288	     -0.13410294	     -4.27032720	    -55.65791683	     -6.95898262	     -2.75067610	     56.26698406	     18.00290126	      3.82798225	     -1.23185202	    -23.36307084	     11.48067205	     -5.63683313	     27.11653744	    -14.49192223	     -3.18022453	     -3.11650195
      0.94000000	      3.26823594	     -0.11085884	      0.22699526	     -0.39411204	      0.89423566	      0.00800511	     -3.10771983	     -0.56057892	     -4.26958452	    -57.36884835	     -6.76671167	     -3.14606920	     52.86263245	     17.43652468	      4.14963171	     -1.36653893	    -23.31888323	     12.10113513	     -5.26294594	     26.07032413	    -14.51338965	     -3.55095623	     -3.30379981
      0.94500000	      3.26788337	      0.13573517	      0.16570763	     -0.38677473	      0.89519540	      0.00781916	     -1.99849814	     -0.89830047	     -4.21121925	    -58.92260576	     -6.54834550	     -3.77614480	     51.39659790	     16.81081799	      4.38300878	     -1.53104824	    -23.16281290	     12.68109896	     -4.84793463	     25.62121577	    -14.53164863	     -3.85954905	     -3.42411386
      0.95000000	      3.35541827	      0.39038270	      0.13833890	     -0.37946535	      0.89634632	      0.00755420	     -1.00955418	     -1.25561902	     -4.21523002	    -60.33516241	     -6.12493486	     -4.39473981	     51.20426151	     16.04008011	      4.65693910	     -1.60129809	    -22.89395615	     13.05678253	     -4.76773241	     25.60105813	    -14.65513503	     -4.16386227	     -3.61313594
      0.95500000	      3.39882137	      0.54439210	     -0.01873051	     -0.37215193	      0.89755173	      0.00756190	      0.05291885	     -1.46178016	     -4.03329271	    -61.67601848	     -5.34653418	     -4.67934593	     48.21129909	     15.27419499	      4.76333712	     -1.85837714	    -22.56283830	     13.68458830	     -4.28350873	     24.71633834	    -14.71349293	     -4.38712067	     -3.62816691
      0.96000000	      3.45567378	      0.70431106	     -0.11564952	     -0.36484818	      0.89885105	      0.00742580	      1.07090973	     -1.69026542	     -3.95204010	    -62.85105572	     -4.61188127	     -5.18960401	     48.02906536	     14.44460501	      4.92498204	     -1.94416419	    -22.10965820	     13.99662265	     -4.19721738	     24.66266881	    -14.79002771	     -4.59563053	     -3.69990350
